<?xml version="1.0" encoding="UTF-8"?>
<svg id="Layer_1" xmlns="http://www.w3.org/2000/svg" version="1.1" xmlns:xlink="http://www.w3.org/1999/xlink" viewBox="0 0 1080 668.5">
  <!-- Generator: Adobe Illustrator 30.0.0, SVG Export Plug-In . SVG Version: 2.1.1 Build 123)  -->
  <defs>
    <style>
      .st0 {
        stroke: #f48070;
      }

      .st0, .st1, .st2 {
        stroke-width: 2.2px;
      }

      .st0, .st1, .st2, .st3, .st4, .st5 {
        fill: none;
      }

      .st0, .st1, .st2, .st4, .st5 {
        stroke-miterlimit: 10;
      }

      .st6 {
        fill: #ef3e24;
      }

      .st1 {
        stroke: #ef3e24;
      }

      .st7 {
        fill: #002c40;
      }

      .st2 {
        stroke: #000;
      }

      .st4 {
        stroke-width: 2.1px;
      }

      .st4, .st5 {
        stroke: #191919;
      }

      .st8 {
        clip-path: url(#clippath-1);
      }

      .st5 {
        stroke-width: 1.7px;
      }

      .st9 {
        clip-path: url(#clippath);
      }
    </style>
    <clipPath id="clippath">
      <rect class="st3" x="655.7" y="205.9" width="111.6" height="151.9" transform="translate(424.3 991.3) rotate(-89.6)"/>
    </clipPath>
    <clipPath id="clippath-1">
      <rect class="st3" x="527.3" y="494.5" width="49.6" height="92.6" transform="translate(7.1 1088.8) rotate(-89.6)"/>
    </clipPath>
  </defs>
  <path class="st4" d="M316.4,392.4c-4.6,5.4-3,13.7,3.2,17.1,3.2,1.7,7.1,1.8,10.4.2l10.2-5.1,87.4-44.6-61.6-30.8-5.1,10.3-44.5,52.8ZM346.7,373.7l18.4-20.2c1.9-2.1,5-2.5,7.4-1l21.5,13.5-31.3,10.5c-.8.3-1.6.4-2.5.4l-12,.2c-1.8,0-2.8-2.1-1.6-3.4Z"/>
  <path class="st7" d="M905.4,326.6c-93.9-.7-170.5,74.8-171.3,168.7-.7,93.9,74.8,170.6,168.7,171.3,93.9.7,170.6-74.8,171.3-168.7.7-93.9-74.8-170.5-168.7-171.3M903.3,612.5c-64-.5-115.5-52.7-115-116.7.5-64,52.7-115.5,116.7-115,64,.5,115.5,52.7,115,116.7-.5,64-52.7,115.5-116.7,115"/>
  <path class="st1" d="M1015.6,601.7c23.6-26.3,38-60.9,38.3-99"/>
  <path class="st1" d="M754.3,500.5c-.6,82.8,66,150.4,148.7,151"/>
  <path class="st7" d="M834.4,496.1c-.3,38,30.3,69.1,68.3,69.4,38,.3,69.1-30.3,69.4-68.3.3-38-30.3-69.1-68.3-69.4-38-.3-69.1,30.3-69.4,68.3"/>
  <circle class="st4" cx="903.3" cy="496.7" r="56.9"/>
  <path class="st7" d="M176.4,326.2c-93.9-.7-170.5,74.8-171.3,168.7-.7,93.9,74.8,170.6,168.7,171.3,93.9.7,170.6-74.8,171.3-168.7.7-93.9-74.8-170.5-168.7-171.3M174.3,612.1c-64-.5-115.5-52.7-115-116.7.5-64,52.7-115.5,116.7-115,64,.5,115.5,52.7,115,116.7-.5,64-52.7,115.5-116.7,115"/>
  <path class="st1" d="M286.7,596.3c23.6-26.3,38-60.9,38.3-99"/>
  <path class="st1" d="M25.3,495.1c-.6,82.8,66,150.4,148.7,151"/>
  <path class="st7" d="M105.5,490.7c-.3,38,30.3,69.1,68.3,69.4,38,.3,69.1-30.3,69.4-68.3.3-38-30.3-69.1-68.3-69.4-38-.3-69.1,30.3-69.4,68.3"/>
  <circle class="st4" cx="174.3" cy="491.2" r="56.9"/>
  <polygon class="st7" points="419.2 349.7 405.6 382.3 390.5 422.5 361.7 422.3 361.3 377.2 382.8 334.2 419.2 349.7"/>
  <rect class="st7" x="787.4" y="89.1" width="25.9" height="425.3" transform="translate(-51.2 382.8) rotate(-26.1)"/>
  <rect class="st0" x="787.4" y="89.1" width="25.9" height="425.3" transform="translate(-51.2 382.8) rotate(-26.1)"/>
  <path class="st6" d="M466.3,209.1l152,67,42.2,18.6c10.8,4.8,19.6,13.1,25,23.7l7.3,14.5,52.6.4c22,.2,42.7-10,56.1-27.4l8.8-11.4s-29-54.1-110.2-113.5l-6.3-11.2-.6-1.1-32.1-16.3c-20.2-10.3-42.9-15-65.5-13.6l-63.2,4c-16.2,1-30.7,10.2-38.5,24.4l-15.9,9.5-11.7,32.4Z"/>
  <path class="st2" d="M466.3,209.1l152,67,42.2,18.6c10.8,4.8,19.6,13.1,25,23.7l7.3,14.5,52.6.4c22,.2,42.7-10,56.1-27.4l8.8-11.4s-29-54.1-110.2-113.5l-6.3-11.2-.6-1.1-32.1-16.3c-20.2-10.3-42.9-15-65.5-13.6l-63.2,4c-16.2,1-30.7,10.2-38.5,24.4l-15.9,9.5-11.7,32.4Z"/>
  <g class="st9">
    <path class="st6" d="M727.4,321.6l37.3,16.5-2.2-30.7-18.6-9.2.6,11-9.6-4.3-7.4,16.7ZM767.4,288.9c1,.5,1.8,1.2,2.2,2.4.4,1.1.4,2.2,0,3.2-.5,1.2-1.5,2-2.9,2.5l.4,4.3,13.3,6.5c2.1-2,3.8-4.4,5.1-7.3,2.5-5.6,2.6-11.2.4-16.9-2.2-5.7-6-9.8-11.6-12.2-5.6-2.5-11.2-2.6-16.8-.4-5.6,2.2-9.7,6.1-12.2,11.7-1,2.3-1.6,4.6-1.8,7l18.3,9-.3-3.7v-1.5c-.2-1.2,0-2.2.3-3.1,1-2.3,2.9-2.8,5.5-1.6M768.2,313.5c1.6-.2,3.2-.6,4.6-1.1l-5-2.4.3,3.5"/>
    <path class="st6" d="M688,277.2c-3.3,7.4-4,14-2.2,20,1.8,5.9,5.9,10.3,12.2,13.1,6.3,2.8,12.3,2.9,17.9.2,5.6-2.7,10-7.7,13.3-15.1l1.6-3.7-16.1-7.9-3.4,7.7c-1.6,3.5-3.7,4.7-6.4,3.5-2.8-1.2-3.4-3.6-1.8-7.1l3.6-8-16.1-7.9-2.4,5.3M717.6,277.1l16.1,7.9,1-2.3c3.3-7.4,4-14,2.2-19.9-1.8-5.9-5.8-10.3-12.2-13.1-6.3-2.8-12.3-2.9-17.9-.2-5.6,2.7-10,7.7-13.3,15l-.3.6,16.1,7.9,2.1-4.7c1.6-3.5,3.7-4.7,6.5-3.4,2.7,1.2,3.3,3.6,1.8,7.1l-2.2,5Z"/>
    <path class="st6" d="M638.8,255.4c-3.3,7.4-4,14-2.2,20,1.8,5.9,5.9,10.3,12.2,13.1,6.3,2.8,12.3,2.9,17.9.2,5.6-2.7,10-7.7,13.3-15.1l2.5-5.6-16.1-8-4.3,9.7c-1.6,3.5-3.7,4.7-6.4,3.5-2.8-1.2-3.4-3.6-1.8-7.1l4.4-10-16.2-8-3.2,7.3M669.3,253.3l16.1,7.9v-.3c3.4-7.4,4.2-14,2.4-19.9-1.8-5.9-5.8-10.3-12.2-13.1-6.3-2.8-12.3-2.9-17.9-.2-5.2,2.5-9.5,7.1-12.7,13.7l16.1,7.9,1.2-2.7c1.6-3.5,3.7-4.7,6.5-3.4,2.7,1.2,3.3,3.6,1.8,7.1l-1.3,3Z"/>
  </g>
  <path class="st7" d="M98.4,164.3l-26-.2,268.7,186.9c33.1,23,73.8,32.6,113.7,26.8l302.8-44.4-285.1-121.6-174.7-6.9-118.3-29.6-81.1-11.1Z"/>
  <path class="st7" d="M730.4,458.2l7-19.7c17.2-48.1,54.1-86.9,101.7-105.4,20.3-7.9,42.5-12.1,65.6-12,40.8.3,78.3,14.3,108.1,37.7l-21.6,12.5-33.4,6.9-14.5,13.8-31.2,15.8,4.3,62.3-25.7,11.8-32.6-62.3-50.3-.4-32.4,39.2-47.5,11.8-2.1.5,4.5-12.5Z"/>
  <polygon class="st6" points="373.3 434.8 413.7 429.1 461.1 316.2 699.1 318 655.3 533.3 386.5 555.4 356.5 498.1 373.3 434.8"/>
  <polygon class="st2" points="373.3 434.8 413.7 429.1 461.1 316.2 699.1 318 655.3 533.3 386.5 555.4 356.5 498.1 373.3 434.8"/>
  <path class="st7" d="M504.2,510.9l61.1.5,85.8-21.6,9.5-36.4-23.7-7.3-29.7-40.6c-2.5-3.4-6.4-5.4-10.6-5.4h-6.6c-7.3-.1-13.3,5.8-13.4,13.1l-.2,29.1-16,21-63.1,26.8c-4.3,1.8-5.9,7.1-3.4,11l4,6.4c1.4,2.2,3.8,3.5,6.3,3.5"/>
  <path class="st3" d="M523.7,173.6l115.8,48.7,115.8,48.7s-34.8-52.5-115.5-80.5c-31.5-10.9-69.9-18.1-116-17"/>
  <path class="st2" d="M523.7,173.6l115.8,48.7,115.8,48.7s-34.8-52.5-115.5-80.5c-31.5-10.9-69.9-18.1-116-17Z"/>
  <path class="st7" d="M639.7,190.5l-.2,31.8,115.8,48.7s-34.8-52.5-115.5-80.5"/>
  <path class="st6" d="M540.8,465.9c-.2,25,19.9,45.4,44.9,45.6,25,.2,45.4-19.9,45.6-44.9.2-25-19.9-45.4-44.9-45.6-25-.2-45.4,19.9-45.6,44.9"/>
  <circle class="st2" cx="586" cy="466.3" r="45.2" transform="translate(-158.1 550.9) rotate(-45)"/>
  <path class="st7" d="M572.5,466.2c0,7.4,5.9,13.5,13.4,13.6,7.4,0,13.5-5.9,13.6-13.4,0-7.4-5.9-13.5-13.4-13.6-7.4,0-13.5,5.9-13.6,13.4"/>
  <path class="st5" d="M545.8,466c-.2,22.2,17.7,40.3,39.9,40.5,22.2.2,40.3-17.7,40.5-39.9.2-22.2-17.7-40.3-39.9-40.5-22.2-.2-40.3,17.7-40.5,39.9Z"/>
  <path class="st1" d="M466.3,211.9h0l-89.2-3.8h-65.6c0,0-13.4-27-13.4-27-6.1-12.3-18.9-20-32.6-19.6l-112.4,1.2c-4.4,0-8.4-2.7-10-6.8l-76.9-15.1v10.5c0,0,100.3,40.5,100.3,40.5,5.4,2.2,11.5.2,14.6-4.7l102.5,29.7,19,8,55.5,54.4,114.1-4.4,53.5-16.9,2.1-11.7-61.5-34.3Z"/>
  <path class="st6" d="M332.2,295.1l16.3,25.1,85.5,42.7,1.3,9,2.5,17.7v.7s1.1,29.9,1.1,29.9l14.5,3.4,19.4,48.9,12.5,4.7,8.8-27.6-5.9-9.9.2-25.7,14.5-14.6,166.5-78.9c2.2-1,2.2-4.1,0-5.2l-79.8-39.5-15.7-7.7-36.8-18.2-4.5,15.5-53.7,16.3s-71.4,3.6-108,5.6c-36.6,2.1-38.7,7.9-38.7,7.9"/>
  <path class="st2" d="M332.2,295.1l16.3,25.1,85.5,42.7,1.3,9,2.5,17.7v.7s1.1,29.9,1.1,29.9l14.5,3.4,19.4,48.9,12.5,4.7,8.8-27.6-5.9-9.9.2-25.7,14.5-14.6,166.5-78.9c2.2-1,2.2-4.1,0-5.2l-79.8-39.5-15.7-7.7-36.8-18.2-4.5,15.5-53.7,16.3s-71.4,3.6-108,5.6c-36.6,2.1-38.7,7.9-38.7,7.9Z"/>
  <path class="st7" d="M576.1,466.2c0,5.5,4.3,9.9,9.8,10,5.5,0,9.9-4.3,10-9.8,0-5.5-4.3-9.9-9.8-10-5.5,0-9.9,4.3-10,9.8"/>
  <polygon class="st7" points="148.1 180.7 80.4 184.7 35.5 179.8 35.5 184.4 50.2 189.1 44.1 190.3 44.1 195.8 59.5 198.6 59.5 203 45.8 201.9 45.7 206.7 55.8 208.5 55.1 216 45.4 224 38.6 224 38.5 231.6 43.4 231.7 24.6 270.2 29.1 271.7 75.6 222.5 75.3 215.4 85.9 196.4 187.8 198.6 148.1 180.7"/>
  <polygon class="st7" points="643.2 494.6 674.6 336.3 695.1 337.5 660.2 503.9 643.2 494.6"/>
  <path class="st7" d="M743.7,169.1v3s44,77,44,77l27.4,2.1,8.3.6,3.8,15.1,12.5,4.6-1.4,11.2,43.5.3c8.1-9.7,11.4-21.9,12.5-33.3,1.7-18.5-2.7-34.8-2.7-34.8-3.5-12-8.1-22.9-13.4-32.7-24.9-46.2-65.2-69.7-74.4-74.7-1.2-.7-1.9-1-1.9-1-40.6,30-58.1,62.4-58.1,62.4"/>
  <path class="st7" d="M729,112.1s36,.3,37.1,36.5l-4.3,2.9s-1.1-27.8-31.4-34.1l-1.5-5.3Z"/>
  <path class="st7" d="M722.7,123.7s36,.3,37.1,36.5l-4.3,2.9s-1.1-27.8-31.4-34.1l-1.5-5.3Z"/>
  <path class="st1" d="M778.8,146.1l.3,6,.6,9.7,1.7,29.8,59.4,35.5-29.9,4.6,4.2,19.7,8.3.6,3.8,15.1,12.5,4.6-1.4,11.2,43.5.3c8.1-9.7,11.4-21.9,12.5-33.3,1.7-18.5-2.7-34.8-2.7-34.8-3.5-12-8.1-22.9-13.4-32.7-24.9-46.2-65.2-69.7-74.4-74.7l1.5,14.8s-14.5,3.2-26.5,23.5Z"/>
  <polygon class="st7" points="435.3 371.9 437.8 389.5 437.8 390.2 589.6 275.7 573.9 268 435.3 371.9"/>
  <path class="st6" d="M507,528.9l8.6,20.4,79.6,15.5c.6-.3,1.1-.7,1.7-1,49.1-30.1,79.5-25.6,79.5-25.6l-19-40.5-14.2-3.1-26.3,13.1c-19.1,9.5-40.3,13.7-61.5,12.2l-6.3-.4-38-2.6-4,12.1Z"/>
  <polygon class="st6" points="757.6 333.4 770.7 337 746.7 380.9 696 428.6 656.2 419.1 674.6 336.3 757.6 333.4"/>
  <polygon class="st2" points="757.6 333.4 770.7 337 746.7 380.9 696 428.6 656.2 419.1 674.6 336.3 757.6 333.4"/>
  <path class="st3" d="M872.7,245l11.9,12.5,9.7-7.6c1.7-18.5-2.7-34.8-2.7-34.8-3.5-12-8.1-22.9-13.4-32.7-11.8-9.8-31-22.9-47.2-20.1"/>
  <path class="st2" d="M872.7,245l11.9,12.5,9.7-7.6c1.7-18.5-2.7-34.8-2.7-34.8-3.5-12-8.1-22.9-13.4-32.7-11.8-9.8-31-22.9-47.2-20.1"/>
  <polygon class="st7" points="729.1 99.6 683.8 96.6 667.9 114.3 667.8 131.2 680.7 134.1 689.6 139.2 735.4 139.5 729.1 99.6"/>
  <rect class="st7" x="675.2" y="79.7" width="59.9" height="8.5" transform="translate(615.9 788.4) rotate(-89.6)"/>
  <path class="st7" d="M683.2,58.8l25.6.2c1.9,0,3.4-1.5,3.4-3.3l.2-29.1c.1-13.9-11.1-25.3-25-25.4h-3.8s-.4,57.6-.4,57.6Z"/>
  <rect class="st7" x="659.1" y="93.4" width="52.6" height="7.5" transform="translate(583.2 781.8) rotate(-89.6)"/>
  <path class="st7" d="M666.2,75.1l22.5.2c1.6,0,3-1.3,3-2.9l.2-25.6c0-12.2-9.7-22.2-21.9-22.3h-3.3s-.4,50.6-.4,50.6Z"/>
  <path class="st7" d="M163.5,303.5l108.8,99.3-51.4,83.7,6.7,14.2,68.3-61.5,60.3,48.3s18.7-157.8-192.7-184"/>
  <path class="st7" d="M83.8,260.8l9.7,76.8,5,3.4,122,81.6,26.7,17.9,49.5,3.8,73,48.3,22.2.2s-34.6-58.3-131.4-111.9l-10.1-18-24.9-14.6-3.2-1.9-112.1-82.4-16.9-12.4-9.5,9.3Z"/>
  <path class="st7" d="M83.8,260.8l9.7,76.8,5,3.4,122,81.6,26.7,17.9,49.5,3.8,73,48.3,22.2.2s-34.6-58.3-131.4-111.9l-10.1-18-24.9-14.6-3.2-1.9-112.1-82.4-16.9-12.4-9.5,9.3Z"/>
  <path class="st6" d="M220.4,422.6l26.7,17.9,49.5,3.8,73,48.3,22.2.2s-34.6-58.3-131.4-111.9l-10.1-18-24.9-14.6-5,74.3Z"/>
  <path class="st2" d="M220.4,422.6l26.7,17.9,49.5,3.8,73,48.3,22.2.2s-34.6-58.3-131.4-111.9l-10.1-18-24.9-14.6-5,74.3Z"/>
  <polygon class="st7" points="83.8 260.8 93.4 337.6 98.5 341 110.1 264 93.2 251.5 83.8 260.8"/>
  <polygon class="st2" points="83.8 260.8 93.4 337.6 98.5 341 110.1 264 93.2 251.5 83.8 260.8"/>
  <line class="st4" x1="142.1" y1="298.6" x2="211.4" y2="352.2"/>
  <path class="st4" d="M872.7,245l11.9,12.5,9.7-7.6c1.7-18.5-2.7-34.8-2.7-34.8-3.5-12-8.1-22.9-13.4-32.7-11.8-9.8-31-22.9-47.2-20.1"/>
  <polyline class="st4" points="787.7 249.2 815.1 251.3 823.4 251.9"/>
  <line class="st4" x1="743.7" y1="169.1" x2="743.7" y2="172.1"/>
  <g class="st8">
    <path class="st4" d="M507,528.9l8.6,20.4,79.6,15.5c.6-.3,1.1-.7,1.7-1-9.4-18-31.1-34-47.8-44.4l-38-2.6-4,12.1Z"/>
  </g>
  <line class="st4" x1="693.8" y1="169.8" x2="639.7" y2="190.5"/>
  <polyline class="st4" points="693.8 169.8 693.2 168.7 661.1 152.3"/>
  <path class="st1" d="M858.2,419.6l-50.3-.4-32.4,39.2-47.5,11.8-2.1.5,4.5-12.5,7-19.7c17.2-48.1,54.1-86.9,101.7-105.4,20.3-7.9,42.5-12.1,65.6-12,40.8.3,78.3,14.3,108.1,37.7l-21.6,12.5-33.4,6.9-14.5,13.8-31.2,15.8"/>
  <path class="st3" d="M83.8,260.8l9.7,76.8,5,3.4,122,81.6,26.7,17.9,49.5,3.8,73,48.3,22.2.2s-34.6-58.3-131.4-111.9l-10.1-18-24.9-14.6-3.2-1.9-112.1-82.4-16.9-12.4-9.5,9.3Z"/>
</svg>