<?xml version="1.0" encoding="UTF-8"?>
<svg id="Layer_1" xmlns="http://www.w3.org/2000/svg" version="1.1" viewBox="0 0 1080 1080">
  <!-- Generator: Adobe Illustrator 30.0.0, SVG Export Plug-In . SVG Version: 2.1.1 Build 123)  -->
  <defs>
    <style>
      .st0 {
        fill: #ef3f25;
        fill-rule: evenodd;
      }
    </style>
  </defs>
  <path class="st0" d="M817.2,1014.3c-207-7.4-536.9-170.8-762.8-563.3C-25.8,311.6-14.3,152.6,103.3,43.3,143,6.3,192.8,15.3,239.5,23.2c11.5,1.7,23.4,19.3,29.2,32.2,30.1,68.5,59.7,137,85.9,207.1,13.9,37-11.6,71.9-65.2,133.6-17.1,19.4-20.6,37.6-7.3,60.2,86.9,147.1,208.3,253.5,368.1,316,23.5,9.1,41,3.4,55.9-15,84.6-103.3,93.3-133.5,137.8-112.3,214.2,102.4,231,106.6,232,131,7.3,180.5-158.3,245.6-258.6,238.2Z"/>
</svg>