<?xml version="1.0" encoding="UTF-8"?>
<svg id="Layer_1" xmlns="http://www.w3.org/2000/svg" version="1.1" viewBox="0 0 794.1 668.5">
  <!-- Generator: Adobe Illustrator 30.0.0, SVG Export Plug-In . SVG Version: 2.1.1 Build 123)  -->
  <defs>
    <style>
      .st0 {
        fill: #ef4024;
      }
    </style>
  </defs>
  <path class="st0" d="M7.8,104.3c45.3,124,74.8,255.6,86.2,392.4l691.7,171.1c.4-14.5.6-28.9.6-43.5C766.4-25.2,606-105.4,7.8,104.3M199.2,404.7c-10.5-78.1-26.7-155.2-48.3-230.7,108.4-34.2,221-53.2,335.6-56.1,55.5.4,104,36,121.6,88.3l-104.3,14.7-172.9,24.3c8.7,26.2,14.9,53.6,18.4,81.7l195.8,48.1,108.8,26.7c6.3,39.4,10.9,79,13.8,118.9l-468.7-116Z"/>
</svg>