<svg width="72" height="61" viewBox="0 0 72 61" fill="none" xmlns="http://www.w3.org/2000/svg">
<g clip-path="url(#clip0_54622_12458)">
<path d="M0.682739 43.9238H6.09246C10.1017 43.9238 12.4257 46.4602 12.4257 50.0818C12.4257 53.7035 10.1607 56.5179 6.03516 56.5179H0.682739V43.9238ZM4.37685 53.845H5.7908C7.79459 53.845 8.61531 52.4412 8.61531 50.0818C8.61531 47.9971 7.8502 46.5967 5.8363 46.5967H4.37854V53.845H4.37685Z" fill="white"/>
<path d="M22.9304 53.6744C22.9304 54.7563 22.9844 56.1955 23.045 56.5174H19.7554C19.6829 56.3219 19.6206 55.8669 19.6088 55.6326C19.1521 56.2275 18.4476 56.75 16.9039 56.75C14.7535 56.75 13.5923 55.4001 13.5923 53.6929C13.5923 51.4397 15.399 50.4656 18.3263 50.4656H19.5026V49.9347C19.5026 49.3196 19.2835 48.8696 18.424 48.8696C17.6168 48.8696 17.4061 49.2404 17.3219 49.8589H14.0305C14.1569 48.2579 15.1074 46.6855 18.515 46.6973C21.6581 46.7091 22.9304 47.9208 22.9304 50.2313V53.671V53.6744ZM19.5026 52.2638H18.7139C17.4853 52.2638 17.0809 52.6935 17.0809 53.4013C17.0809 53.9659 17.4145 54.4176 18.124 54.4176C19.3324 54.4176 19.5026 53.5884 19.5026 52.5587V52.2638Z" fill="white"/>
<path d="M24.9858 43.2715H28.5518V47.7813C28.9866 47.2403 29.7484 46.6993 31.1707 46.6993C33.547 46.6993 35.0081 48.6121 35.0081 51.5411C35.0081 54.4701 33.4964 56.7503 30.8556 56.7503C29.5293 56.7503 28.9378 56.3357 28.5013 55.7459C28.4945 55.9818 28.4524 56.2986 28.4035 56.5177H24.9656C24.9841 55.5318 24.9841 54.4651 24.9841 53.4472V43.2715H24.9858ZM31.3814 51.6355C31.3814 50.1086 30.9651 49.2121 29.9085 49.2121C28.776 49.2121 28.417 49.9923 28.417 51.7804C28.417 53.2786 28.7271 54.283 29.8849 54.283C30.9028 54.283 31.3814 53.2921 31.3814 51.6355Z" fill="white"/>
<path d="M39.941 54.0692L39.2113 56.5179H35.6166L39.5972 43.9238H44.3749L48.5123 56.5179H44.6581L43.8929 54.0692H39.941ZM43.2475 51.334C42.656 49.3555 42.1723 47.596 41.8858 46.3675H41.8352C41.5437 47.7241 41.0617 49.5223 40.5511 51.334H43.2458H43.2475Z" fill="white"/>
<path d="M53.3101 55.8469V60.0297H49.7626V49.5136C49.7626 48.6491 49.7626 47.6042 49.744 46.9318H53.2123C53.2561 47.1762 53.3033 47.7222 53.3033 48.0019C53.6808 47.4323 54.4527 46.6992 55.9913 46.6992C58.0103 46.6992 59.7444 48.371 59.7444 51.4938C59.7444 55.0396 57.7423 56.7502 55.5363 56.7502C54.3532 56.7502 53.6842 56.3322 53.3101 55.8469ZM56.1093 51.6354C56.1093 49.8625 55.5734 49.212 54.66 49.212C53.5409 49.212 53.1938 49.9788 53.1938 51.7702C53.1938 53.4251 53.5409 54.2846 54.5824 54.2846C55.6239 54.2846 56.1093 53.4774 56.1093 51.6371V51.6354Z" fill="white"/>
<path d="M64.8846 55.8469V60.0297H61.3371V49.5136C61.3371 48.6491 61.3371 47.6042 61.3186 46.9318H64.7869C64.8307 47.1762 64.8779 47.7222 64.8779 48.0019C65.2554 47.4323 66.0273 46.6992 67.5659 46.6992C69.5849 46.6992 71.319 48.371 71.319 51.4938C71.319 55.0396 69.3186 56.7502 67.1109 56.7502C65.9278 56.7502 65.2588 56.3322 64.8846 55.8469ZM67.6839 51.6354C67.6839 49.8625 67.148 49.212 66.2345 49.212C65.1155 49.212 64.7667 49.9788 64.7667 51.7702C64.7667 53.4251 65.1155 54.2846 66.1553 54.2846C67.1951 54.2846 67.6822 53.4774 67.6822 51.6371L67.6839 51.6354Z" fill="white"/>
<path d="M12.0276 6.33956C14.5707 13.2997 16.2257 20.6863 16.8644 28.3627L55.6829 37.9671C55.7048 37.1548 55.7183 36.3441 55.7183 35.5285C54.6044 -0.932389 45.5999 -5.4287 12.0276 6.33956ZM22.7713 23.1973C22.1797 18.8139 21.2747 14.4862 20.063 10.2511C26.1452 8.33155 32.4649 7.26814 38.901 7.10299C42.0171 7.12826 44.7388 9.12531 45.728 12.0577L39.8768 12.8801L30.1763 14.2435C30.6651 15.7147 31.0139 17.25 31.2077 18.8308L42.1991 21.5306L48.3048 23.0288C48.657 25.2382 48.9149 27.4644 49.0783 29.7042L22.7746 23.1956L22.7713 23.1973Z" fill="#F03D24"/>
</g>
<defs>
<clipPath id="clip0_54622_12458">
<rect width="70.6365" height="59.48" fill="white" transform="translate(0.681763 0.550781)"/>
</clipPath>
</defs>
</svg>
