<?xml version="1.0" encoding="UTF-8"?>
<svg id="Layer_1" xmlns="http://www.w3.org/2000/svg" version="1.1" viewBox="0 0 1080 1080">
  <!-- Generator: Adobe Illustrator 30.0.0, SVG Export Plug-In . SVG Version: 2.1.1 Build 123)  -->
  <defs>
    <style>
      .st0 {
        fill: #0f8554;
        fill-rule: evenodd;
      }
    </style>
  </defs>
  <path class="st0" d="M15.2,1066.6c5.9-22.8,11-42.6,16.4-62.4,17.4-63.4,35.2-126.6,51.6-190.1,2.4-9.5,1.4-22.1-3.1-30.6C-80.9,476.6,85.2,105.1,423.1,25.8c306.8-71.9,582.6,135.2,633,412.1,52.4,288.8-136.6,563.3-423.1,613.4-113.9,19.7-222.8,2.9-326.8-47.6-9.3-4.6-22.3-5.9-32.2-3.5-138.6,34.8-230.8,60.9-258.7,66.3ZM137.1,946.4c52.1-13.6,100.2-25.6,147.7-39,13.5-3.6,23.8-1.7,35.7,5.2,90.1,51.9,186.6,71.3,289.8,54.7,237.5-38.1,400.2-260.4,363.9-497-37.7-245.3-267.7-409.9-510.7-365.3C169.5,159,13.5,486.8,159.6,746.3c16.2,28.8,20.7,52.5,9.8,83.1-13,36.8-21,75.2-32.3,117Z"/>
  <path class="st0" d="M678,785.8c-102.2-3.6-264.9-84.3-376.4-277.9-39.6-68.8-33.9-147.3,24.1-201.2,19.6-18.3,44.2-13.8,67.2-9.9,5.7.8,11.6,9.5,14.4,15.9,14.8,33.8,29.5,67.6,42.4,102.2,6.8,18.3-5.7,35.5-32.2,65.9-8.4,9.6-10.2,18.5-3.6,29.7,42.9,72.6,102.8,125.1,181.6,155.9,11.6,4.5,20.2,1.7,27.6-7.4,41.8-51,46-65.9,68-55.4,105.7,50.5,114,52.6,114.5,64.6,3.6,89.1-78.1,121.2-127.6,117.6Z"/>
</svg>